<svg xmlns="http://www.w3.org/2000/svg" xmlns:xlink="http://www.w3.org/1999/xlink" width="500" zoomAndPan="magnify" viewBox="0 0 375 374.999991" height="500" preserveAspectRatio="xMidYMid meet" version="1.0"><defs><g/></defs><path fill="#cbd5e1" d="M 365.132812 88.816406 L 9.867188 88.816406 L 9.867188 49.34375 C 9.867188 27.539062 27.539062 9.867188 49.34375 9.867188 L 325.65625 9.867188 C 347.460938 9.867188 365.132812 27.539062 365.132812 49.34375 Z M 365.132812 88.816406 " fill-opacity="1" fill-rule="nonzero"/><path fill="#ffffff" d="M 365.132812 88.816406 L 365.132812 325.65625 C 365.132812 347.460938 347.460938 365.132812 325.65625 365.132812 L 49.34375 365.132812 C 27.539062 365.132812 9.867188 347.460938 9.867188 325.65625 L 9.867188 88.816406 Z M 365.132812 88.816406 " fill-opacity="1" fill-rule="nonzero"/><path fill="#0f172a" d="M 49.34375 375 L 325.65625 375 C 352.875 375 375 352.875 375 325.65625 L 375 49.34375 C 375 22.136719 352.875 0 325.65625 0 L 49.34375 0 C 22.128906 0 0 22.136719 0 49.34375 L 0 325.65625 C 0 352.875 22.128906 375 49.34375 375 Z M 98.683594 19.738281 L 325.65625 19.738281 C 341.980469 19.738281 355.261719 33.019531 355.261719 49.34375 L 355.261719 78.949219 L 98.683594 78.949219 Z M 19.738281 49.34375 C 19.738281 33.019531 33.019531 19.738281 49.34375 19.738281 L 78.949219 19.738281 L 78.949219 78.949219 L 19.738281 78.949219 Z M 19.738281 98.683594 L 355.261719 98.683594 L 355.261719 325.65625 C 355.261719 341.980469 341.980469 355.261719 325.65625 355.261719 L 49.34375 355.261719 C 33.019531 355.261719 19.738281 341.980469 19.738281 325.65625 Z M 239.734375 259.46875 L 272.230469 226.972656 L 239.734375 194.476562 C 235.878906 190.621094 235.878906 184.378906 239.734375 180.523438 C 243.589844 176.667969 249.832031 176.667969 253.6875 180.523438 L 293.160156 219.996094 C 297.015625 223.851562 297.015625 230.097656 293.160156 233.949219 L 253.6875 273.425781 C 251.757812 275.351562 249.234375 276.316406 246.710938 276.316406 C 244.1875 276.316406 241.660156 275.351562 239.734375 273.425781 C 235.878906 269.570312 235.878906 263.324219 239.734375 259.46875 Z M 81.839844 233.949219 C 77.984375 230.097656 77.984375 223.851562 81.839844 219.996094 L 121.3125 180.523438 C 125.167969 176.667969 131.410156 176.667969 135.265625 180.523438 C 139.121094 184.378906 139.121094 190.621094 135.265625 194.476562 L 102.769531 226.972656 L 135.265625 259.46875 C 139.121094 263.324219 139.121094 269.570312 135.265625 273.425781 C 133.339844 275.351562 130.8125 276.316406 128.289062 276.316406 C 125.765625 276.316406 123.238281 275.351562 121.3125 273.425781 Z M 158.394531 283.0625 L 197.871094 164.640625 C 199.625 159.464844 205.214844 156.707031 210.359375 158.40625 C 215.523438 160.121094 218.320312 165.710938 216.605469 170.886719 L 177.128906 289.304688 C 175.742188 293.429688 171.886719 296.050781 167.761719 296.050781 C 166.722656 296.050781 165.679688 295.898438 164.640625 295.550781 C 159.476562 293.816406 156.679688 288.226562 158.394531 283.0625 Z M 158.394531 283.0625 " fill-opacity="1" fill-rule="nonzero"/><g fill="#0e172a" fill-opacity="1"><g transform="translate(108.570071, 69.91622)"><g><path d="M 6.042969 0.175781 L 7.203125 0 L 9.46875 0.117188 L 10.746094 -0.0585938 L 12.605469 0.0585938 L 14.234375 -0.640625 L 14.929688 -1.683594 L 14.757812 -7.785156 L 14.929688 -9.585938 L 14.871094 -10.804688 L 14.988281 -12.898438 L 14.871094 -14.175781 L 14.871094 -16.441406 L 15.394531 -16.964844 L 15.976562 -16.730469 L 16.90625 -15.976562 L 17.601562 -15.105469 L 19.984375 -12.722656 L 20.738281 -11.792969 L 22.308594 -10.28125 L 23.527344 -9.410156 L 24.804688 -9.351562 L 25.96875 -10.226562 L 26.78125 -11.097656 L 27.480469 -11.792969 L 29.105469 -13.710938 L 29.917969 -14.292969 L 32.300781 -16.730469 L 33.054688 -17.078125 L 33.519531 -16.207031 L 33.40625 -13.011719 L 33.578125 -10.691406 L 33.460938 -8.421875 L 33.578125 -6.273438 L 33.460938 -5.230469 L 33.578125 -2.613281 L 33.578125 -1.742188 L 34.042969 -0.40625 L 35.261719 -0.0585938 L 42.292969 0.175781 L 43.511719 -0.464844 L 44.210938 -2.148438 L 44.035156 -5.171875 L 44.152344 -6.332031 L 44.035156 -23.761719 L 44.152344 -25.039062 L 44.09375 -30.789062 L 44.152344 -31.894531 L 44.035156 -34.390625 L 44.09375 -35.378906 L 44.035156 -37.761719 L 44.152344 -38.867188 L 43.453125 -40.085938 L 42.234375 -40.722656 L 40.550781 -40.203125 L 39.332031 -39.445312 L 36.890625 -36.890625 L 36.136719 -35.960938 L 35.4375 -35.320312 L 34.625 -34.277344 L 29.511719 -29.046875 L 28.757812 -28.058594 L 25.214844 -24.457031 L 24.167969 -23.761719 L 22.949219 -24.226562 L 22.25 -25.214844 L 21.4375 -26.027344 L 20.390625 -27.363281 L 19.113281 -28.523438 L 13.828125 -34.390625 L 13.011719 -35.089844 L 11.503906 -36.890625 L 10.574219 -37.703125 L 9.0625 -39.273438 L 7.726562 -40.261719 L 6.101562 -40.722656 L 4.820312 -40.144531 L 4.183594 -38.921875 L 4.355469 -35.378906 L 4.183594 -33.113281 L 4.300781 -32.070312 L 4.242188 -22.773438 L 4.355469 -21.613281 L 4.183594 -15.742188 L 4.300781 -14.640625 L 4.242188 -1.800781 L 4.878906 -0.582031 Z M 6.042969 0.175781 "/></g></g></g><g fill="#0e172a" fill-opacity="1"><g transform="translate(157.133186, 69.91622)"><g><path d="M 34.277344 0.117188 L 36.484375 -0.0585938 L 37.585938 0.0585938 L 39.386719 0 L 41.015625 -0.289062 L 41.1875 -1.683594 L 40.78125 -3.019531 L 39.910156 -5.171875 L 38.34375 -8.191406 L 37.53125 -10.339844 L 36.367188 -12.433594 L 34.160156 -17.71875 L 33.578125 -18.589844 L 32.996094 -19.695312 L 32.648438 -20.972656 L 32.125 -21.84375 L 31.777344 -22.773438 L 30.558594 -24.921875 L 30.152344 -26.144531 L 26.316406 -34.21875 L 25.96875 -35.378906 L 25.328125 -36.425781 L 24.980469 -37.472656 L 23.878906 -39.503906 L 22.890625 -40.550781 L 20.972656 -41.132812 L 19.113281 -40.492188 L 18.066406 -39.503906 L 17.542969 -38.515625 L 17.136719 -37.355469 L 16.613281 -36.542969 L 14.292969 -31.195312 L 13.652344 -30.324219 L 13.363281 -29.164062 L 12.722656 -28.058594 L 12.375 -27.015625 L 6.449219 -14.582031 L 6.101562 -13.304688 L 5.519531 -12.433594 L 5.113281 -11.269531 L 4.066406 -9.410156 L 3.195312 -7.085938 L 2.554688 -6.273438 L 2.265625 -5.230469 L 1.105469 -2.90625 L 0.753906 -1.742188 L 1.046875 -0.289062 L 2.207031 0.0585938 L 4.472656 -0.0585938 L 5.636719 0.0585938 L 8.886719 -0.0585938 L 10.226562 -0.464844 L 11.328125 -1.511719 L 12.375 -3.425781 L 13.476562 -4.53125 L 14.699219 -5.171875 L 15.800781 -4.996094 L 18.242188 -5.230469 L 19.289062 -5.054688 L 24.980469 -5.113281 L 26.027344 -4.996094 L 27.304688 -5.171875 L 28.582031 -4.53125 L 29.6875 -3.601562 L 30.210938 -2.5 L 30.558594 -1.453125 L 31.71875 -0.582031 L 33.054688 0 Z M 21.089844 -14.347656 L 19.925781 -14.582031 L 18.589844 -14.464844 L 17.660156 -14.871094 L 17.601562 -15.976562 L 20.332031 -22.25 L 20.972656 -22.773438 L 21.785156 -22.308594 L 24.515625 -15.917969 L 24.285156 -14.871094 L 23.414062 -14.40625 Z M 21.089844 -14.347656 "/></g></g></g><g fill="#0e172a" fill-opacity="1"><g transform="translate(199.306412, 69.91622)"><g><path d="M 15.164062 0.117188 L 19.054688 0 L 20.738281 -0.582031 L 21.320312 -2.207031 L 21.496094 -5.230469 L 21.320312 -7.4375 L 21.4375 -8.65625 L 21.378906 -10.980469 L 21.496094 -12.027344 L 21.320312 -13.304688 L 21.4375 -22.65625 L 21.261719 -23.878906 L 21.4375 -28.929688 L 21.902344 -30.675781 L 23.003906 -31.371094 L 25.269531 -31.488281 L 27.421875 -31.195312 L 28.640625 -31.371094 L 29.6875 -31.3125 L 30.675781 -31.953125 L 31.371094 -33.230469 L 31.429688 -38.75 L 30.789062 -39.910156 L 29.6875 -40.667969 L 26.085938 -40.667969 L 24.980469 -40.78125 L 23.761719 -40.609375 L 22.65625 -40.722656 L 17.953125 -40.492188 L 16.789062 -40.722656 L 15.6875 -40.78125 L 14.464844 -40.609375 L 13.1875 -40.722656 L 12.140625 -40.492188 L 8.714844 -40.667969 L 6.914062 -40.492188 L 2.847656 -40.722656 L 1.742188 -40.144531 L 1.046875 -38.808594 L 1.105469 -37.644531 L 0.988281 -34.742188 L 1.105469 -32.941406 L 1.625 -31.894531 L 2.671875 -31.3125 L 3.835938 -31.429688 L 9.351562 -31.3125 L 10.457031 -30.730469 L 11.097656 -29.570312 L 10.980469 -27.710938 L 11.097656 -26.085938 L 11.039062 -24.804688 L 11.097656 -23.644531 L 10.980469 -22.019531 L 11.152344 -13.363281 L 11.039062 -12.199219 L 10.980469 -7.496094 L 11.097656 -6.273438 L 11.039062 -2.90625 L 10.921875 -1.800781 L 11.675781 -0.523438 L 13.363281 0.0585938 Z M 15.164062 0.117188 "/></g></g></g><g fill="#0e172a" fill-opacity="1"><g transform="translate(231.778643, 69.91622)"><g><path d="M 15.164062 0.117188 L 19.054688 0 L 20.738281 -0.582031 L 21.320312 -2.207031 L 21.496094 -5.230469 L 21.320312 -7.4375 L 21.4375 -8.65625 L 21.378906 -10.980469 L 21.496094 -12.027344 L 21.320312 -13.304688 L 21.4375 -22.65625 L 21.261719 -23.878906 L 21.4375 -28.929688 L 21.902344 -30.675781 L 23.003906 -31.371094 L 25.269531 -31.488281 L 27.421875 -31.195312 L 28.640625 -31.371094 L 29.6875 -31.3125 L 30.675781 -31.953125 L 31.371094 -33.230469 L 31.429688 -38.75 L 30.789062 -39.910156 L 29.6875 -40.667969 L 26.085938 -40.667969 L 24.980469 -40.78125 L 23.761719 -40.609375 L 22.65625 -40.722656 L 17.953125 -40.492188 L 16.789062 -40.722656 L 15.6875 -40.78125 L 14.464844 -40.609375 L 13.1875 -40.722656 L 12.140625 -40.492188 L 8.714844 -40.667969 L 6.914062 -40.492188 L 2.847656 -40.722656 L 1.742188 -40.144531 L 1.046875 -38.808594 L 1.105469 -37.644531 L 0.988281 -34.742188 L 1.105469 -32.941406 L 1.625 -31.894531 L 2.671875 -31.3125 L 3.835938 -31.429688 L 9.351562 -31.3125 L 10.457031 -30.730469 L 11.097656 -29.570312 L 10.980469 -27.710938 L 11.097656 -26.085938 L 11.039062 -24.804688 L 11.097656 -23.644531 L 10.980469 -22.019531 L 11.152344 -13.363281 L 11.039062 -12.199219 L 10.980469 -7.496094 L 11.097656 -6.273438 L 11.039062 -2.90625 L 10.921875 -1.800781 L 11.675781 -0.523438 L 13.363281 0.0585938 Z M 15.164062 0.117188 "/></g></g></g><g fill="#0e172a" fill-opacity="1"><g transform="translate(264.250873, 69.91622)"><g><path d="M 20.21875 0.175781 L 28.523438 0.0585938 L 29.746094 -0.464844 L 30.382812 -1.683594 L 30.382812 -7.550781 L 29.746094 -8.714844 L 28.523438 -9.238281 L 27.1875 -9.121094 L 26.085938 -9.296875 L 23.121094 -9.351562 L 21.203125 -9.121094 L 20.042969 -9.238281 L 18.765625 -9.179688 L 17.660156 -9.351562 L 16.382812 -9.238281 L 15.164062 -9.816406 L 14.699219 -10.863281 L 14.699219 -14.523438 L 15.222656 -15.742188 L 16.265625 -16.382812 L 18.007812 -16.441406 L 19.867188 -16.265625 L 22.074219 -16.382812 L 24.457031 -16.324219 L 25.621094 -16.441406 L 26.957031 -16.382812 L 28.117188 -16.847656 L 28.523438 -18.007812 L 28.699219 -23.238281 L 28.117188 -24.863281 L 26.78125 -25.621094 L 23.355469 -25.621094 L 22.132812 -25.503906 L 19.695312 -25.679688 L 16.324219 -25.5625 L 15.105469 -26.085938 L 14.640625 -27.886719 L 14.640625 -29.6875 L 15.164062 -30.789062 L 16.441406 -31.253906 L 17.542969 -31.195312 L 18.648438 -31.429688 L 26.957031 -31.3125 L 28.058594 -31.371094 L 29.28125 -32.070312 L 29.859375 -33.113281 L 29.800781 -34.277344 L 29.859375 -35.4375 L 29.746094 -38.921875 L 29.222656 -40.027344 L 28.058594 -40.492188 L 26.839844 -40.492188 L 25.792969 -40.722656 L 21.089844 -40.667969 L 19.808594 -40.550781 L 18.648438 -40.667969 L 17.660156 -40.609375 L 16.5 -40.722656 L 11.734375 -40.609375 L 10.574219 -40.78125 L 9.46875 -40.550781 L 8.421875 -40.667969 L 7.261719 -40.550781 L 6.101562 -40.609375 L 4.878906 -40.144531 L 4.242188 -38.921875 L 4.355469 -36.714844 L 4.183594 -34.335938 L 4.355469 -33.054688 L 4.242188 -27.363281 L 4.414062 -26.144531 L 4.300781 -25.039062 L 4.242188 -20.273438 L 4.414062 -19.230469 L 4.355469 -9.816406 L 4.242188 -8.714844 L 4.414062 -7.550781 L 4.242188 -3.542969 L 4.355469 -2.265625 L 4.820312 -0.695312 L 6.566406 0.0585938 L 10.746094 0.117188 L 12.027344 0 L 13.070312 0.0585938 L 15.453125 -0.117188 L 16.558594 0.117188 L 17.894531 0.175781 L 19.054688 0.0585938 Z M 20.21875 0.175781 "/></g></g></g><g fill="#0e172a" fill-opacity="1"><g transform="translate(297.536355, 69.91622)"><g><path d="M 23.296875 0.753906 L 28.464844 0.230469 L 30.675781 -0.464844 L 35.84375 -2.789062 L 39.910156 -6.679688 L 40.667969 -7.726562 L 42.933594 -11.734375 L 43.339844 -12.839844 L 43.511719 -14 L 43.863281 -14.929688 L 44.09375 -16.207031 L 44.382812 -20.273438 L 44.09375 -24.285156 L 43.628906 -26.433594 L 43.164062 -27.652344 L 42.875 -28.988281 L 41.828125 -30.90625 L 41.421875 -31.953125 L 40.667969 -32.941406 L 39.96875 -33.636719 L 39.214844 -34.683594 L 36.714844 -36.949219 L 33.753906 -38.808594 L 26.144531 -41.1875 L 23.414062 -41.246094 L 19.34375 -41.015625 L 18.183594 -40.78125 L 17.023438 -40.433594 L 15.976562 -39.96875 L 13.769531 -39.386719 L 10.804688 -37.53125 L 9.992188 -36.832031 L 8.132812 -35.554688 L 6.566406 -33.8125 L 4.589844 -30.90625 L 4.066406 -29.917969 L 2.960938 -26.722656 L 2.5 -24.226562 L 2.265625 -17.488281 L 2.90625 -13.828125 L 3.777344 -11.851562 L 4.125 -10.632812 L 4.707031 -9.585938 L 7.4375 -5.867188 L 9.0625 -4.300781 L 9.816406 -3.425781 L 13.769531 -1.335938 L 14.871094 -0.871094 L 19.808594 0.582031 Z M 21.667969 -9.46875 L 20.507812 -9.875 L 19.460938 -9.992188 L 17.488281 -11.039062 L 15.6875 -12.605469 L 15.105469 -13.421875 L 14.347656 -14.234375 L 13.246094 -17.488281 L 12.957031 -20.390625 L 13.011719 -22.132812 L 13.421875 -24.285156 L 13.769531 -25.328125 L 14.464844 -26.144531 L 14.988281 -27.128906 L 15.742188 -28.058594 L 16.613281 -28.816406 L 18.300781 -29.976562 L 19.34375 -30.5 L 20.566406 -30.789062 L 23.238281 -31.023438 L 26.027344 -30.847656 L 29.105469 -29.511719 L 30.90625 -28.175781 L 32.242188 -26.199219 L 32.707031 -25.15625 L 33.054688 -23.992188 L 33.460938 -22.949219 L 33.695312 -20.449219 L 33.347656 -17.542969 L 32.824219 -15.164062 L 32.183594 -14.292969 L 31.660156 -13.421875 L 30.964844 -12.375 L 29.164062 -10.980469 L 28.117188 -10.515625 L 27.1875 -9.992188 L 26.144531 -9.875 L 25.039062 -9.585938 Z M 21.667969 -9.46875 "/></g></g></g></svg>